<svg width="58" height="57" viewBox="0 0 58 57" fill="none" xmlns="http://www.w3.org/2000/svg">
<g id="SVGRepo_iconCarrier">
<path id="Vector" d="M56.5223 15.6943C56.1961 15.2313 55.6647 14.9542 55.0983 14.9542H17.8794L15.0612 5.23871C13.9564 1.41212 11.3311 1 10.2543 1H2.74143C1.77865 1 1 1.7804 1 2.74143C1 3.70246 1.7804 4.48286 2.74143 4.48286H10.2525C10.4911 4.48286 11.2153 4.48286 11.7099 6.19097L21.4026 41.8105C21.6131 42.5611 22.2987 43.0802 23.0791 43.0802H46.7524C47.4872 43.0802 48.1431 42.6207 48.3904 41.928L56.7345 17.2832C56.9274 16.75 56.8467 16.1555 56.5206 15.6925L56.5223 15.6943ZM45.5283 39.5991H24.4032L18.8597 18.4388H52.6238L45.5283 39.5991ZM42.0735 46.6104C39.6517 46.6104 37.6893 48.5728 37.6893 50.9946C37.6893 53.4165 39.6517 55.3789 42.0735 55.3789C44.4954 55.3789 46.4578 53.4165 46.4578 50.9946C46.4578 48.5728 44.4954 46.6104 42.0735 46.6104ZM26.2902 46.6104C23.8683 46.6104 21.9059 48.5728 21.9059 50.9946C21.9059 53.4165 23.8683 55.3789 26.2902 55.3789C28.7121 55.3789 30.6744 53.4165 30.6744 50.9946C30.6744 48.5728 28.7121 46.6104 26.2902 46.6104Z" fill="#0B34BA" stroke="#0B34BA" stroke-width="2"/>
</g>
</svg>
