<svg width="51" height="54" viewBox="0 0 51 54" fill="none" xmlns="http://www.w3.org/2000/svg">
<path id="Vector" d="M33.8101 35.6792C30.6847 33.5701 26.8838 32.3333 22.784 32.3333C12.8718 32.3333 4.70524 39.5637 3.61261 48.8701C3.53528 49.5288 3.49661 49.8581 3.63253 50.1763C3.74376 50.4363 3.98451 50.6971 4.23922 50.8333C4.55048 51 4.93155 51 5.69361 51H19.8752M31.0536 46.4285L36.0153 51L47.5927 40.3333M33.8101 13.6667C33.8101 19.5577 28.8737 24.3333 22.784 24.3333C16.6945 24.3333 11.758 19.5577 11.758 13.6667C11.758 7.77563 16.6945 3 22.784 3C28.8737 3 33.8101 7.77563 33.8101 13.6667Z" stroke="#0B34BA" stroke-width="5.33333" stroke-linecap="round" stroke-linejoin="round"/>
</svg>
