<?xml version="1.0" encoding="UTF-8" standalone="no"?>
<svg xmlns:xlink="http://www.w3.org/1999/xlink" xmlns="http://www.w3.org/2000/svg" width="4802" height="1050" id="svg2">
<defs>
<linearGradient xlink:href="#linearG02link" id="linearGradient3162" gradientUnits="userSpaceOnUse" x1="225.6" y1="518" x2="79.3" y2="518"/>
<linearGradient id="linearG02link">
      <stop offset="0" id="stop00" style="stop-color:#0B34BA;stop-opacity:1;"/>
      <stop offset="1" id="stop02" style="stop-color:#545454;stop-opacity:1;"/>
    </linearGradient>
<linearGradient xlink:href="#linearG02link" id="linearGradient3164" gradientUnits="userSpaceOnUse" x1="85.8" y1="398.9" x2="85.8" y2="262.7"/>
<linearGradient xlink:href="#linearG02link" id="linearGradient3187" gradientUnits="userSpaceOnUse" x1="275.3" y1="653.4" x2="148.1" y2="653.4"/>
<linearGradient xlink:href="#linearG02link" id="linearGradient3185" gradientUnits="userSpaceOnUse" x1="211.2" y1="400.6" x2="211.2" y2="256.6"/>
<linearGradient xlink:href="#linearG02link" id="linearGradient3218" gradientUnits="userSpaceOnUse" x1="74.2" y1="543.5" x2="74.2" y2="396.2"/>
<linearGradient xlink:href="#linearG02link" id="linearGradient3228" gradientUnits="userSpaceOnUse" x1="167.4" y1="268.1" x2="308.4" y2="268.1"/>
<linearGradient xlink:href="#linearG02link" id="linearGradient3184" gradientUnits="userSpaceOnUse" x1="328.1" y1="390.5" x2="279.7" y2="489.5"/>
<linearGradient xlink:href="#linearG02link" id="linearGradient3197" gradientUnits="userSpaceOnUse" x1="182.9" y1="451.2" x2="61.7" y2="451.2"/>
<linearGradient xlink:href="#linearG02link" id="linearGradient3186" gradientUnits="userSpaceOnUse" x1="87.5" y1="381.5" x2="87.5" y2="268.2"/>
<linearGradient xlink:href="#linearG02link" id="linearGradient3163" gradientUnits="userSpaceOnUse" x1="250.6" y1="590.5" x2="377.4" y2="560.3"/>
<linearGradient xlink:href="#linearG02link" id="linearGradient3161" gradientUnits="userSpaceOnUse" x1="347.2" y1="342.2" x2="211.1" y2="297.4"/>
<linearGradient xlink:href="#linearG02link" id="linearGradient4354" gradientUnits="userSpaceOnUse" x1="38.3" y1="402.4" x2="133.8" y2="272.1"/>
<linearGradient xlink:href="#linearG02link" id="linearGradient4356" gradientUnits="userSpaceOnUse" x1="233" y1="600.6" x2="366.2" y2="600.6"/>
<linearGradient xlink:href="#linearG02link" id="linearGradient3480" gradientUnits="userSpaceOnUse" x1="155.7" y1="703.9" x2="85.7" y2="598.2"/>
<linearGradient xlink:href="#linearG02link" id="linearGradient3478" gradientUnits="userSpaceOnUse" x1="95.3" y1="392.5" x2="207.1" y2="504.3"/>
<linearGradient xlink:href="#linearG02link" id="linearGradient3529" gradientUnits="userSpaceOnUse" x1="271.9" y1="710.7" x2="271.9" y2="569.1"/>
<linearGradient xlink:href="#linearG02link" id="linearGradient3527" gradientUnits="userSpaceOnUse" x1="260.7" y1="469.2" x2="260.7" y2="606.4"/>
<linearGradient xlink:href="#linearG02link" id="linearGradient3525" gradientUnits="userSpaceOnUse" x1="166.3" y1="619.7" x2="40.3" y2="526.6"/>
</defs>
<g><path d="m 433.5 392.5 c 0 103.5 -84 187.5 -187.5 187.5 l -222 0 0 -117 222 0 c 34.5 0 67.5 -32 67.5 -70.5 l 60.5 -6 z  " id="pat1-000P100" transform="translate(25,25)" style="fill:url(#linearGradient3162);" />
<path d="m 21 730 0 -522 120 0 0 522 z  " id="pat1-001P100" transform="translate(25,25)" style="fill:url(#linearGradient3164);" />
<path d="m 313.5 392.5 c 0 -38.5 -33 -70.5 -67.5 -70.5 H 18 v -117 h 228 c 103.5 0 187.5 84 187.5 187.5 l -58.5 9 z  " id="pat0-00P100" transform="translate(25,25)" style=" fill:#0B34BA" />
<path d="m 204 613 c 38.6 0 70.5 -35.4 70.5 -70.5 V 205 h 115.5 v 337.5 c 0 103.5 -82.5 187.5 -186 187.5 l -10.5 -57.8 z  " id="pat1-000U101" transform="translate(467.5,25)" style="fill:url(#linearGradient3187);" />
<path d="M 204 730 C 100.5 730 15 646 15 542.5 V 205 h 120 v 337.5 c 0 35.1 31.1 70.5 69 70.5 v 117 z  " id="pat0-00U101" transform="translate(467.5,25)" style=" fill:#0B34BA" />
<path d="m 268.5 208 0 522 -123 0 0 -522 z  " id="pat1-000T102" transform="translate(872.5,25)" style="fill:url(#linearGradient3185);" />
<path d="m 6 316 v -111 h 400.5 v 111 H 6 z  " id="pat0-00T102" transform="translate(872.5,25)" style=" fill:#0B34BA" />
<path d="M 237 733 C 111.1 733 10.5 614.1 10.5 467.5 l 61.5 -4.5 58.5 4.5 c 0 82.8 48.5 150 106.5 150 l 7.5 56.1 z  " id="pat1-001O103" transform="translate(1270,25)" style="fill:url(#linearGradient3218);" />
<path d="m 237 316 c -58 0 -105 68.7 -105 151.5 L 9 467.5 C 9 320.9 111.1 203.5 237 203.5 l 6 51.6 z  " id="pat1-000O103" transform="translate(1270,25)" style="fill:url(#linearGradient3228);" />
<path d="m 342 467.5 c 0 -82.8 -47 -150 -105 -150 v -115.5 c 125.9 0 228 118.9 228 265.5 0 146.6 -102.1 265.5 -228 265.5 L 231 677.4 237 617.5 c 58 0 105 -67.2 105 -150 z  " id="pat0-00O103" transform="translate(1270,25)" style=" fill:#0B34BA" />
<path d="m 216 415 c 33.1 0 60 -25.5 60 -57 0 -21.5 -16.4 -39 -33 -39 L 238.4 265 246 205 c 82.5 0 150 67.5 150 150 0 74.5 -74.7 120 -157.5 120 l -52.5 -60 h 30 z  " id="pat1-000R104" transform="translate(1744,25)" style="fill:url(#linearGradient3184);" />
<path d="m 201 514 -177 0 0 -99 162 0 16.9 52.1 z  " id="pat1-001R104" transform="translate(1744,25)" style="fill:url(#linearGradient3197);" />
<path d="m 21 730 0 -522 120 0 0 522 z  " id="pat1-002R104" transform="translate(1744,25)" style="fill:url(#linearGradient3186);" />
<path d="m 243 319 -225 0 0 -114 228 0 4.5 58.5 z m -57 96 c 105 0 210 78.8 210 157.5 l 0 157.5 -120 0 0 -141 c 0 -42 -33 -75 -75 -75 l -14.6 -46.9 z  " id="pat0-00R104" transform="translate(1744,25)" style=" fill:#0B34BA" />
<path d="m 97.5 517 h 315 v 105 H 97.5 v -105 z  " id="pat1-000A105" transform="translate(2152,25)" style="fill:url(#linearGradient3163);" />
<path d="m 196.5 205 h 129 l 180 525 h -127.5 z  " id="pat1-001A105" transform="translate(2152,25)" style="fill:url(#linearGradient3161);" />
<path d="M 309 205 129 730 H 1.5 L 181.5 205 h 127.5 z  " id="pat0-00A105" transform="translate(2152,25)" style=" fill:#0B34BA" />
<path d="M 21,730 V 208 H 135 V 730 H 21 z " id="pat1-001n106" transform="translate(2659,25)" style="fill:url(#linearGradient4354);" />
<path d="m 157.5,205 231,525 h -120 L 90,319 H 18 V 205 h 139.5 z " id="pat1-000n106" transform="translate(2659,25)" style="fill:url(#linearGradient4356);" />
<path d="M 291,730 V 205 H 405 V 730 H 291 z " id="pat0-00n106" transform="translate(2659,25)" style=" fill:#0B34BA" />
<path d="m 36 622 h 309 v 108 H 36 v -108 z  " id="pat1-000two107" transform="translate(3085,25)" style="fill:url(#linearGradient3480);" />
<path d="m 138 356.5 c 0 25.7 20.2 46.5 45 46.5 h 51 l -54 114 C 90.6 517 18 445.1 18 356.5 l 60 -6 z  " id="pat1-001two107" transform="translate(3085,25)" style="fill:url(#linearGradient3478);" />
<path d="m 18 356.5 c 0 -85.3 71.2 -154.5 159 -154.5 87.8 0 159 67.2 159 150 0 173.1 -162.8 268.8 -278.3 364.2 l -16.6 13.8 H 7.5 v -111 c 120 -99 208.5 -176.5 208.5 -268.5 0 -18.6 -16.8 -33.8 -37.5 -33.8 -22.4 0 -40.5 17.8 -40.5 39.8 l -57 6 z  " id="pat0-00two107" transform="translate(3085,25)" style=" fill:#0B34BA" />
<path d="m 330 619 v 111 h -117 v -111 h 117 z  " id="pat1-002four108" transform="translate(3439,25)" style="fill:url(#linearGradient3529);" />
<path d="M 213 569.5 V 482.5 L 330 283 V 569.5 H 213 z  " id="pat1-001four108" transform="translate(3439,25)" style="fill:url(#linearGradient3527);" />
<path d="m 45 535 h 324 v 111 H 45 v -111 z  " id="pat1-000four108" transform="translate(3439,25)" style="fill:url(#linearGradient3525);" />
<path d="M 9 647.5 V 532 L 72 421 C 109.7 353.8 141 285.6 141 205 h 120 c 0 108.8 -47.1 195.3 -102 292.5 L 73.5 647.5 H 9 z  " id="pat0-00four108" transform="translate(3439,25)" style=" fill:#0B34BA" />
<path d="m 9 737.5 v -135 h 132 v 135 H 9 z  " id="pat0-00period109" transform="translate(3814,25)" style=" fill:#0B34BA" />
<path d="m 216 415 c 33.1 0 60 -25.5 60 -57 0 -21.5 -16.4 -39 -33 -39 L 238.4 265 246 205 c 82.5 0 150 67.5 150 150 0 74.5 -74.7 120 -157.5 120 l -52.5 -60 h 30 z  " id="pat1-000R110" transform="translate(3964,25)" style="fill:url(#linearGradient3184);" />
<path d="m 201 514 -177 0 0 -99 162 0 16.9 52.1 z  " id="pat1-001R110" transform="translate(3964,25)" style="fill:url(#linearGradient3197);" />
<path d="m 21 730 0 -522 120 0 0 522 z  " id="pat1-002R110" transform="translate(3964,25)" style="fill:url(#linearGradient3186);" />
<path d="m 243 319 -225 0 0 -114 228 0 4.5 58.5 z m -57 96 c 105 0 210 78.8 210 157.5 l 0 157.5 -120 0 0 -141 c 0 -42 -33 -75 -75 -75 l -14.6 -46.9 z  " id="pat0-00R110" transform="translate(3964,25)" style=" fill:#0B34BA" />
<path d="m 204 613 c 38.6 0 70.5 -35.4 70.5 -70.5 V 205 h 115.5 v 337.5 c 0 103.5 -82.5 187.5 -186 187.5 l -10.5 -57.8 z  " id="pat1-000U111" transform="translate(4372,25)" style="fill:url(#linearGradient3187);" />
<path d="M 204 730 C 100.5 730 15 646 15 542.5 V 205 h 120 v 337.5 c 0 35.1 31.1 70.5 69 70.5 v 117 z  " id="pat0-00U111" transform="translate(4372,25)" style=" fill:#0B34BA" />
</g>
</svg>