<svg width="41" height="41" viewBox="0 0 41 41" fill="none" xmlns="http://www.w3.org/2000/svg">
<g id="telephone-svgrepo-com 1">
<g id="SVGRepo_iconCarrier">
<path id="Vector" d="M24.4818 26.8953L26.7539 24.5677C27.1036 24.2052 27.5199 23.9172 27.9787 23.7208C28.4378 23.5245 28.9301 23.4235 29.4274 23.4235C29.9249 23.4235 30.4172 23.5245 30.8763 23.7208C31.3351 23.9172 31.7514 24.2052 32.101 24.5677L34.766 27.2978C35.1197 27.6559 35.4008 28.082 35.5924 28.5522C35.7841 29.0223 35.8829 29.527 35.8829 30.0364C35.8829 30.546 35.7841 31.0505 35.5924 31.5208C35.4008 31.9908 35.1197 32.4169 34.766 32.775L33.553 34.035C32.7173 34.8995 31.6365 35.4717 30.4645 35.6697C29.2926 35.8676 28.0896 35.6816 27.0272 35.1377C17.8847 30.3166 10.4381 22.6943 5.72434 13.3328C5.19293 12.2433 5.01249 11.0092 5.20895 9.80805C5.40541 8.60685 5.96865 7.50029 6.81771 6.64771L8.03056 5.38776C8.7411 4.66428 9.70226 4.25812 10.7041 4.25812C11.7059 4.25812 12.6671 4.66428 13.3776 5.38776L16.0597 8.13537C16.766 8.86326 17.1624 9.84774 17.1624 10.874C17.1624 11.9003 16.766 12.8848 16.0597 13.6127L13.7876 15.9403C15.2899 18.022 16.9401 19.987 18.7247 21.82C20.499 23.6407 22.4065 25.32 24.4305 26.8428L24.4818 26.8953Z" stroke="white" stroke-width="4" stroke-linecap="round" stroke-linejoin="round"/>
</g>
</g>
</svg>
