<svg width="51" height="49" viewBox="0 0 51 49" fill="none" xmlns="http://www.w3.org/2000/svg">
<g id="search-folder-svgrepo-com(1) 1">
<g id="SVGRepo_iconCarrier">
<path id="Vector" fill-rule="evenodd" clip-rule="evenodd" d="M2.83154 10.2083C2.83154 6.82558 5.60087 4.08331 9.01698 4.08331H18.1682C21.0065 4.08331 23.4806 5.99613 24.169 8.72278L25.0595 12.25H28.6042H42.006C45.4222 12.25 48.1914 14.9922 48.1914 18.375V22.4583C48.1914 23.5859 47.2684 24.5 46.1296 24.5C44.9909 24.5 44.0678 23.5859 44.0678 22.4583V18.375C44.0678 17.2474 43.1447 16.3333 42.006 16.3333H28.6042H25.0595H9.01698C7.87829 16.3333 6.95517 17.2474 6.95517 18.375V20.4166V38.7916C6.95517 39.9193 7.87829 40.8333 9.01698 40.8333H19.3261C20.4648 40.8333 21.3879 41.7474 21.3879 42.875C21.3879 44.0026 20.4648 44.9166 19.3261 44.9166H9.01698C5.60087 44.9166 2.83154 42.1745 2.83154 38.7916V20.4166V18.375V10.2083ZM6.95517 12.5985C7.60006 12.3728 8.29403 12.25 9.01698 12.25H20.809L20.1685 9.71313C19.939 8.80426 19.1143 8.16665 18.1682 8.16665H9.01698C7.87829 8.16665 6.95517 9.08074 6.95517 10.2083V12.5985ZM42.3598 38.2963C43.4392 36.6826 44.0678 34.7473 44.0678 32.6666C44.0678 27.0288 39.4522 22.4583 33.7588 22.4583C28.0653 22.4583 23.4497 27.0288 23.4497 32.6666C23.4497 38.3045 28.0653 42.875 33.7588 42.875C35.8599 42.875 37.8143 42.2525 39.444 41.1837L44.6717 46.3603C45.4769 47.1576 46.7824 47.1576 47.5875 46.3603C48.3927 45.563 48.3927 44.2703 47.5875 43.473L42.3598 38.2963ZM27.5733 32.6666C27.5733 29.2838 30.3425 26.5416 33.7588 26.5416C37.175 26.5416 39.9442 29.2838 39.9442 32.6666C39.9442 36.0495 37.175 38.7916 33.7588 38.7916C30.3425 38.7916 27.5733 36.0495 27.5733 32.6666Z" fill="white"/>
</g>
</g>
</svg>
