<svg width="39" height="39" viewBox="0 0 39 39" fill="none" xmlns="http://www.w3.org/2000/svg">
<g id="telegram-svgrepo-com 1" clip-path="url(#clip0_1_63)">
<g id="SVGRepo_iconCarrier">
<g id="Group">
<path id="Vector" d="M19.5 0C8.73036 0 0 8.73036 0 19.5C0 30.2696 8.73036 39 19.5 39C30.2696 39 39 30.2696 39 19.5C39 8.73036 30.2696 0 19.5 0Z" fill="#40B3E0"/>
<path id="Vector_2" d="M28.9884 11.2172L25.5055 28.7774C25.5055 28.7774 25.0185 29.9952 23.6789 29.4107L15.6415 23.2487L12.719 21.8361L7.79919 20.1799C7.79919 20.1799 7.04417 19.912 6.97105 19.3275C6.89808 18.7429 7.82356 18.4264 7.82356 18.4264L27.3808 10.7543C27.3808 10.7543 28.9884 10.0481 28.9884 11.2172Z" fill="white"/>
<path id="Vector_3" d="M15.0238 28.5802C15.0238 28.5802 14.7892 28.5583 14.4968 27.6327C14.2047 26.7072 12.719 21.8361 12.719 21.8361L24.5313 14.3347C24.5313 14.3347 25.2133 13.9207 25.1889 14.3347C25.1889 14.3347 25.3107 14.4077 24.9453 14.7486C24.58 15.0897 15.6659 23.1026 15.6659 23.1026" fill="#D2E5F1"/>
<path id="Vector_4" d="M18.7233 25.6113L15.5442 28.5098C15.5442 28.5098 15.2957 28.6984 15.0238 28.5802L15.6325 23.1962" fill="#B5CFE4"/>
</g>
</g>
</g>
<defs>
<clipPath id="clip0_1_63">
<rect width="39" height="39" fill="white"/>
</clipPath>
</defs>
</svg>
