<svg width="38" height="38" viewBox="0 0 38 38" fill="none" xmlns="http://www.w3.org/2000/svg">
<g id="vk-1-logo-svgrepo-com 1" clip-path="url(#clip0_1_73)">
<g id="SVGRepo_iconCarrier">
<g id="Base">
<path id="Vector" d="M13.4693 0.940613H24.5495C34.6703 0.940613 37.0594 3.34853 37.0594 13.4693V24.5495C37.0594 34.6703 34.6515 37.0594 24.5307 37.0594H13.4505C3.32969 37.0594 0.940582 34.6515 0.940582 24.5307V13.4505C0.940582 3.34853 3.3485 0.940613 13.4693 0.940613Z" fill="#5181B8"/>
<g id="Clip path group">
<mask id="mask0_1_73" style="mask-type:luminance" maskUnits="userSpaceOnUse" x="0" y="0" width="38" height="38">
<g id="SVGID_2_">
<path id="Vector_2" d="M13.4693 0.940613H24.5495C34.6703 0.940613 37.0594 3.34853 37.0594 13.4693V24.5495C37.0594 34.6703 34.6515 37.0594 24.5307 37.0594H13.4505C3.32969 37.0594 0.940582 34.6515 0.940582 24.5307V13.4505C0.940582 3.34853 3.3485 0.940613 13.4693 0.940613Z" fill="white"/>
</g>
</mask>
<g mask="url(#mask0_1_73)">
<path id="Vector_3" d="M0 0H38V38H0V0Z" fill="#5181B8"/>
</g>
</g>
</g>
<path id="Logo" fill-rule="evenodd" clip-rule="evenodd" d="M30.5129 13.3752C30.6822 12.8109 30.5129 12.4158 29.7228 12.4158H27.0891C26.4119 12.4158 26.1109 12.7733 25.9416 13.1683C25.9416 13.1683 24.6059 16.4416 22.7059 18.5485C22.0851 19.1693 21.8218 19.3574 21.4832 19.3574C21.3139 19.3574 21.0693 19.1693 21.0693 18.6049V13.3752C21.0693 12.698 20.8812 12.4158 20.3168 12.4158H16.1782C15.7644 12.4158 15.501 12.7356 15.501 13.0178C15.501 13.6574 16.4416 13.8079 16.5545 15.5762V19.4515C16.5545 20.298 16.404 20.4485 16.0653 20.4485C15.1812 20.4485 12.999 17.1752 11.7198 13.4129C11.4564 12.7168 11.2119 12.4158 10.5347 12.4158H7.90099C7.14851 12.4158 6.99802 12.7733 6.99802 13.1683C6.99802 13.8643 7.88217 17.3257 11.1554 21.897C13.3376 25.0198 16.404 26.7129 19.1881 26.7129C20.8624 26.7129 21.0693 26.3366 21.0693 25.697V23.3267C21.0693 22.5742 21.2198 22.4238 21.7653 22.4238C22.1604 22.4238 22.8188 22.6119 24.3802 24.1168C26.1673 25.904 26.4683 26.7129 27.4653 26.7129H30.099C30.8515 26.7129 31.2277 26.3366 31.002 25.603C30.7574 24.8693 29.9109 23.797 28.7822 22.5178C28.1614 21.7841 27.2396 21.0129 26.9762 20.6178C26.5812 20.1099 26.6941 19.8841 26.9762 19.4515C26.9762 19.4327 30.1931 14.9178 30.5129 13.3752Z" fill="white"/>
</g>
</g>
<defs>
<clipPath id="clip0_1_73">
<rect width="38" height="38" fill="white"/>
</clipPath>
</defs>
</svg>
