<svg width="37" height="36" viewBox="0 0 37 36" fill="none" xmlns="http://www.w3.org/2000/svg">
<g id="SVGRepo_iconCarrier">
<path id="Vector" fill-rule="evenodd" clip-rule="evenodd" d="M18.3448 36C28.4764 36 36.6897 28.2191 36.6897 18.6207C36.6897 9.02237 28.4764 1.24139 18.3448 1.24139C8.21325 1.24139 0 9.02237 0 18.6207C0 21.7377 0.866138 24.663 2.38282 27.1924L0 36L9.58499 33.8944C12.188 35.2371 15.1724 36 18.3448 36ZM18.3448 33.3263C26.9178 33.3263 33.8674 26.7424 33.8674 18.6207C33.8674 10.4991 26.9178 3.91514 18.3448 3.91514C9.77196 3.91514 2.82229 10.4991 2.82229 18.6207C2.82229 21.7566 3.85831 24.6631 5.62379 27.0499L4.23342 31.9894L9.53922 30.7327C12.0413 32.3685 15.075 33.3263 18.3448 33.3263Z" fill="#BFC8D0"/>
<path id="Vector_2" d="M34.069 17.3793C34.069 25.6065 27.029 32.2759 18.3448 32.2759C15.0325 32.2759 11.9594 31.3056 9.42487 29.6488L4.05017 30.9217L5.45859 25.918C3.67018 23.5002 2.6207 20.5559 2.6207 17.3793C2.6207 9.1522 9.66063 2.48279 18.3448 2.48279C27.029 2.48279 34.069 9.1522 34.069 17.3793Z" fill="url(#paint0_linear_21_40)"/>
<path id="Vector_3" fill-rule="evenodd" clip-rule="evenodd" d="M18.3448 34.7586C28.4764 34.7586 36.6897 26.9777 36.6897 17.3793C36.6897 7.78098 28.4764 0 18.3448 0C8.21325 0 0 7.78098 0 17.3793C0 20.4963 0.866138 23.4216 2.38282 25.951L0 34.7586L9.58499 32.653C12.188 33.9957 15.1724 34.7586 18.3448 34.7586ZM18.3448 32.0849C26.9178 32.0849 33.8674 25.501 33.8674 17.3793C33.8674 9.25765 26.9178 2.67375 18.3448 2.67375C9.77196 2.67375 2.82229 9.25765 2.82229 17.3793C2.82229 20.5152 3.85831 23.4217 5.62379 25.8085L4.23342 30.748L9.53922 29.4913C12.0413 31.1271 15.075 32.0849 18.3448 32.0849Z" fill="white"/>
<path id="Vector_4" d="M13.7586 9.31021C13.3225 8.48025 12.6533 8.55373 11.9775 8.55373C10.7695 8.55373 8.88577 9.92456 8.88577 12.4759C8.88577 14.5667 9.85831 16.8554 13.1354 20.2793C16.2981 23.5836 20.4537 25.2929 23.9036 25.2346C27.3534 25.1765 28.0633 22.3639 28.0633 21.4142C28.0633 20.9932 27.7874 20.7832 27.5976 20.7261C26.4219 20.1915 24.2536 19.1956 23.7602 19.0085C23.2669 18.8214 23.0093 19.0745 22.8491 19.2122C22.4018 19.616 21.5149 20.8065 21.2112 21.0743C20.9076 21.342 20.4549 21.2065 20.2664 21.1053C19.5731 20.8418 17.6935 20.0496 16.1952 18.6736C14.3421 16.9719 14.2334 16.3863 13.8843 15.8652C13.605 15.4482 13.81 15.1925 13.9122 15.0806C14.3115 14.6443 14.8627 13.9705 15.11 13.6357C15.3571 13.3008 15.1609 12.7924 15.0431 12.4759C14.5367 11.1141 14.1076 9.97411 13.7586 9.31021Z" fill="white"/>
</g>
<defs>
<linearGradient id="paint0_linear_21_40" x1="32.1035" y1="6.20692" x2="4.10904" y2="33.7866" gradientUnits="userSpaceOnUse">
<stop stop-color="#5BD066"/>
<stop offset="1" stop-color="#27B43E"/>
</linearGradient>
</defs>
</svg>
